<?xml version="1.0" standalone="no"?>
<!DOCTYPE svg PUBLIC "-//W3C//DTD SVG 20010904//EN"
 "http://www.w3.org/TR/2001/REC-SVG-20010904/DTD/svg10.dtd">
<svg version="1.0" xmlns="http://www.w3.org/2000/svg"
 width="1280.000000pt" height="1185.000000pt" viewBox="0 0 1280.000000 1185.000000"
 preserveAspectRatio="xMidYMid meet">
<metadata>
Created by potrace 1.15, written by Peter Selinger 2001-2017
</metadata>
<g transform="translate(0.000000,1185.000000) scale(0.100000,-0.100000)"
fill="#A84746" stroke="none">
<path d="M5849 10456 c-4 -4 -165 -26 -224 -31 -16 -1 -38 -3 -47 -3 -9 -1
-45 -24 -80 -51 -35 -28 -75 -59 -90 -70 -14 -12 -39 -45 -56 -74 -33 -59
-100 -124 -134 -131 -101 -19 -333 -43 -498 -51 -69 -3 -155 -15 -215 -29 -55
-13 -130 -29 -167 -34 -43 -7 -106 -28 -170 -57 -57 -26 -121 -52 -143 -57
-183 -45 -212 -71 -199 -184 6 -65 6 -66 -50 -177 -48 -95 -59 -128 -74 -217
-52 -318 11 -536 245 -850 42 -58 298 -305 375 -365 42 -31 128 -144 128 -167
0 -5 9 -21 20 -36 23 -31 50 -115 50 -155 0 -42 -13 -60 -86 -118 -86 -68
-221 -208 -257 -265 -23 -38 -40 -51 -105 -80 -42 -19 -90 -42 -107 -51 -207
-112 -256 -123 -350 -79 -39 18 -271 183 -319 226 -5 5 1 22 13 38 12 17 33
74 47 128 14 54 41 134 60 178 19 44 34 85 34 92 0 6 20 54 44 106 42 91 80
140 152 199 60 49 83 137 49 186 -24 34 -79 63 -119 63 -48 0 -84 -19 -129
-69 -29 -32 -37 -49 -37 -79 0 -26 -11 -55 -34 -92 -19 -30 -44 -72 -55 -92
-20 -36 -43 -56 -156 -133 -85 -59 -135 -79 -208 -83 -52 -3 -72 -1 -85 11
-19 17 -61 103 -143 292 -50 117 -72 153 -147 246 -77 95 -90 116 -113 180
-21 62 -22 70 -10 122 13 53 13 57 -10 85 -43 53 -76 67 -159 65 -148 -3 -250
-85 -250 -201 0 -62 52 -112 117 -112 40 -1 52 -13 127 -128 102 -155 103
-184 7 -216 -41 -13 -62 -14 -123 -6 -40 6 -88 20 -108 32 -19 11 -91 40 -160
63 -69 23 -150 52 -180 65 -113 47 -149 60 -170 60 -11 0 -33 6 -48 14 -15 7
-73 30 -129 49 -79 28 -120 49 -180 95 -158 119 -203 133 -292 88 -79 -40
-140 -141 -141 -230 0 -44 4 -53 43 -92 55 -55 85 -62 162 -39 78 25 189 22
274 -5 35 -11 69 -20 75 -20 7 0 39 -16 72 -36 32 -20 114 -65 182 -99 67 -35
142 -79 166 -99 25 -20 49 -36 54 -36 14 0 42 -35 42 -52 0 -22 -33 -48 -62
-48 -15 0 -53 -6 -85 -14 -32 -8 -112 -20 -178 -25 -66 -6 -145 -17 -175 -25
-30 -7 -82 -17 -115 -21 -33 -4 -72 -13 -87 -21 -36 -19 -162 -18 -224 1 -85
26 -154 28 -204 6 -47 -21 -88 -58 -111 -101 -8 -16 -13 -58 -13 -112 0 -103
14 -129 84 -165 60 -31 77 -29 146 15 33 22 98 53 145 70 83 31 87 32 359 42
186 7 293 15 330 25 69 19 94 19 110 0 7 -8 31 -20 54 -25 22 -6 68 -21 101
-35 33 -13 71 -27 85 -31 14 -4 56 -24 93 -45 38 -22 76 -39 84 -39 8 0 28
-11 45 -25 16 -14 39 -25 50 -25 19 0 124 -52 169 -84 11 -7 33 -34 49 -59 16
-25 74 -94 130 -154 56 -59 109 -124 117 -143 33 -75 154 -199 301 -308 35
-26 83 -64 108 -84 25 -21 52 -38 61 -38 8 0 47 -17 87 -37 69 -37 74 -38 171
-38 103 1 134 10 194 56 12 10 39 21 60 25 33 6 152 59 334 150 37 19 74 34
81 34 7 0 33 11 58 24 24 13 55 27 69 31 13 4 98 44 189 88 l165 81 116 0 116
1 56 -38 c106 -73 229 -239 270 -364 41 -123 45 -153 52 -358 11 -330 11 -335
39 -400 17 -39 36 -92 45 -130 4 -17 19 -49 34 -71 14 -23 31 -61 38 -85 14
-49 115 -215 164 -270 18 -20 49 -65 70 -100 20 -35 56 -86 79 -114 23 -27 49
-61 58 -75 50 -76 215 -223 319 -285 35 -21 80 -52 99 -70 52 -47 118 -98 180
-139 30 -20 87 -61 125 -91 39 -30 107 -79 153 -111 46 -31 81 -61 79 -67 -10
-29 -273 7 -532 73 -110 27 -245 57 -300 66 -55 8 -139 28 -187 45 -47 16
-104 29 -126 29 -22 0 -57 6 -78 14 -22 7 -61 16 -89 21 -27 4 -68 13 -90 20
-105 33 -255 57 -535 86 -52 5 -111 14 -130 20 -58 16 -364 23 -498 10 -137
-13 -212 -35 -287 -85 -70 -47 -214 -193 -250 -255 -34 -57 -58 -71 -84 -47
-13 11 -38 16 -87 16 -64 0 -74 -3 -132 -41 -83 -54 -116 -104 -110 -163 7
-57 32 -89 93 -118 28 -12 63 -32 79 -43 35 -24 76 -112 76 -162 0 -50 -51
-97 -124 -114 -49 -11 -59 -10 -113 11 -112 44 -466 204 -487 221 -12 10 -59
37 -104 61 -46 23 -92 48 -102 54 -38 21 -62 50 -91 105 -15 31 -42 68 -59 83
-67 56 -242 23 -290 -56 -41 -68 -33 -164 22 -239 30 -41 71 -61 138 -70 79
-11 138 -25 152 -37 33 -26 143 -62 174 -56 38 7 74 -10 74 -35 0 -18 106
-126 170 -173 20 -14 49 -56 77 -112 51 -102 51 -123 3 -199 -58 -92 -135
-102 -247 -33 -91 56 -118 64 -170 55 -67 -13 -89 -33 -122 -114 -39 -93 -40
-143 -5 -185 53 -62 66 -65 314 -66 199 -1 239 -4 350 -27 156 -32 184 -35
346 -42 206 -9 360 -32 398 -60 74 -53 125 -83 151 -89 17 -4 55 -26 85 -50
30 -23 70 -48 89 -56 18 -7 46 -24 60 -36 15 -12 73 -40 129 -63 57 -22 113
-47 125 -56 12 -8 29 -15 38 -15 9 0 39 -18 67 -40 27 -22 55 -40 61 -40 5 0
25 -13 43 -28 18 -15 53 -37 78 -47 44 -19 106 -53 220 -120 30 -18 84 -47
120 -65 36 -18 88 -47 115 -65 28 -17 70 -42 95 -54 25 -13 56 -33 70 -45 27
-25 54 -39 200 -107 52 -24 126 -61 164 -82 38 -21 81 -40 95 -44 14 -3 38
-12 53 -20 15 -7 58 -20 95 -27 128 -26 242 -64 287 -95 69 -47 185 -78 436
-116 52 -8 124 -21 160 -30 226 -52 451 -51 633 3 82 23 95 31 160 93 63 59
77 78 110 156 43 104 47 160 18 244 -35 104 -74 164 -170 269 -54 58 -111 125
-128 150 -32 48 -215 229 -374 370 -236 211 -314 284 -317 296 -6 24 34 23
133 -3 56 -15 146 -29 205 -33 58 -4 148 -12 200 -18 52 -6 163 -16 245 -23
83 -6 186 -17 229 -25 54 -10 89 -11 110 -5 39 12 155 31 189 31 13 0 38 7 53
15 16 8 54 15 85 15 49 0 65 5 110 36 33 22 76 40 117 49 46 9 73 21 95 43 18
17 52 38 77 48 31 12 75 48 141 113 53 53 103 107 112 121 18 30 67 173 67
198 0 10 11 33 25 52 13 18 34 57 47 87 17 42 26 53 42 51 15 -2 22 -16 31
-60 6 -31 16 -62 22 -70 6 -7 13 -33 16 -58 3 -25 12 -99 21 -165 8 -66 17
-138 19 -160 13 -117 48 -187 147 -296 39 -43 57 -54 135 -81 76 -26 109 -31
210 -35 l120 -4 62 40 c82 54 185 180 202 248 23 88 43 137 109 263 133 255
173 343 198 436 13 52 31 105 38 117 8 12 28 67 44 122 16 55 40 134 52 175
21 71 37 133 61 245 6 28 15 102 20 165 13 182 33 283 74 368 36 75 47 105 99
267 23 74 32 105 71 265 27 109 48 186 60 220 7 19 20 71 30 115 9 44 23 95
31 113 8 18 14 49 14 70 1 62 76 130 235 212 53 27 113 64 135 84 45 41 92 66
170 91 30 10 81 31 112 47 32 15 91 35 130 44 40 9 101 22 136 30 82 18 119
38 142 77 33 53 22 147 -22 195 -30 32 -110 72 -144 72 -40 0 -145 -56 -205
-109 -79 -70 -87 -73 -167 -61 -96 13 -120 24 -174 78 -66 64 -65 89 9 235 31
62 70 133 87 159 17 27 51 79 75 117 28 44 69 90 113 126 42 35 74 70 84 93 8
20 24 46 35 58 17 18 19 29 13 77 -6 52 -11 61 -59 106 -60 57 -82 65 -165 59
-47 -3 -69 -11 -102 -35 -50 -36 -65 -72 -74 -176 -5 -56 -16 -92 -49 -159
-23 -48 -56 -104 -72 -125 -17 -21 -41 -57 -54 -80 -26 -46 -54 -56 -64 -23
-10 32 -57 58 -116 64 -30 2 -79 8 -110 12 -54 6 -58 5 -93 -27 -36 -33 -37
-38 -46 -124 -10 -102 -25 -138 -132 -301 -36 -55 -103 -175 -148 -265 -45
-90 -95 -182 -110 -204 -28 -41 -34 -58 -68 -200 -35 -144 -44 -241 -38 -400
15 -382 17 -572 6 -630 -6 -33 -13 -69 -15 -80 -3 -11 -20 -45 -40 -75 -29
-44 -35 -64 -35 -107 0 -28 -4 -55 -10 -58 -11 -7 -11 -35 -11 554 -1 401 0
431 18 457 15 23 19 53 21 177 3 144 4 148 26 157 31 12 38 44 30 149 -5 70
-3 93 10 119 32 62 15 150 -39 202 -34 33 -36 34 -113 31 -73 -2 -79 0 -103
26 -48 52 -67 118 -62 206 5 70 3 80 -20 115 -25 37 -41 79 -72 183 -9 32 -27
67 -43 82 -35 32 -93 67 -112 67 -8 0 -33 10 -55 22 -77 42 -359 35 -427 -10
-14 -9 -45 -30 -69 -46 -103 -69 -159 -148 -256 -361 -47 -105 -123 -294 -123
-309 0 -5 -11 -34 -25 -65 -13 -31 -29 -75 -35 -98 -14 -56 -40 -87 -67 -79
-11 4 -34 32 -50 64 -69 131 -84 157 -107 187 -13 17 -36 67 -51 111 -15 43
-39 102 -54 129 -15 28 -34 73 -41 100 -14 53 -60 153 -91 196 -10 14 -28 52
-40 85 -12 32 -27 66 -34 74 -17 21 -45 96 -45 121 0 11 -11 40 -25 63 -14 24
-38 88 -54 142 -16 54 -39 127 -52 162 -28 79 -17 97 34 53 51 -46 113 -69
208 -80 93 -10 229 -2 250 15 8 6 30 17 50 23 22 7 70 45 126 101 86 83 92 92
103 147 6 32 16 77 21 100 14 65 11 276 -6 367 -35 190 -39 253 -22 293 9 21
19 54 22 73 9 47 85 288 101 321 7 14 32 34 56 44 60 26 194 112 245 156 24
20 76 53 117 73 41 20 78 41 81 46 3 6 18 10 33 10 42 0 163 37 184 57 84 76
49 197 -76 260 -44 22 -59 25 -125 21 -94 -6 -142 -27 -164 -74 -9 -19 -17
-41 -17 -48 0 -29 -43 -66 -117 -100 -43 -20 -99 -48 -125 -62 -26 -13 -67
-31 -90 -38 -24 -7 -74 -31 -110 -53 -37 -22 -88 -46 -113 -53 -42 -12 -50
-11 -95 10 -63 30 -93 84 -120 218 -11 56 -29 127 -41 159 -54 151 -54 175 4
234 38 39 42 49 41 91 -1 64 -23 92 -104 133 -82 41 -152 46 -240 15 -65 -22
-91 -52 -92 -106 -1 -55 23 -97 74 -131 36 -24 43 -36 54 -83 19 -82 30 -512
15 -580 -23 -104 -48 -150 -80 -150 -9 0 -37 17 -63 38 -76 61 -179 135 -228
163 -25 14 -74 43 -110 63 -59 34 -69 37 -125 33 -236 -18 -356 -151 -210
-234 50 -29 90 -29 169 -1 63 22 64 22 105 3 46 -20 120 -94 146 -146 10 -19
24 -41 31 -50 8 -9 25 -47 38 -85 13 -38 40 -114 61 -169 21 -55 44 -128 52
-163 15 -72 8 -97 -48 -165 -34 -41 -53 -45 -116 -21 -44 17 -63 46 -103 159
-44 124 -89 186 -240 335 -56 55 -111 124 -157 195 -40 61 -85 126 -102 146
-17 20 -31 43 -31 50 0 41 -325 380 -447 465 -53 38 -83 84 -83 127 0 16 -5
38 -12 50 -6 12 -15 56 -19 97 -24 239 -65 315 -240 442 -98 71 -152 88 -276
88 -49 0 -92 -2 -94 -4z"/>
</g>
</svg>
